<svg width="50" height="50" viewBox="0 0 24 24" fill="none" xmlns="http://www.w3.org/2000/svg">
  <path fill-rule="evenodd" clip-rule="evenodd" d="M12 4.248c-1.307-1.422-3.428-1.422-4.735 0C5.612 5.677 5.61 8.027 6.926 9.322l5.074 4.844 5.074-4.844c1.316-1.295 1.318-3.645 0-5.074-1.307-1.422-3.428-1.422-4.735 0L12 4.248zM12 21.758l-9.094-8.702C.714 10.17.007 7.637.006 5.104c-.001-2.533.707-5.066 2.9-7.053 2.348-2.139 5.625-2.168 7.944-.089l1.15 1.1 1.15-1.1c2.319-2.079 5.596-2.05 7.944.089 2.193 1.987 2.901 4.52 2.9 7.053 0 2.533-.707 5.066-2.9 7.052L12 21.758z" fill="#FF0000"/>
</svg>
